<mxfile host="app.diagrams.net" agent="Mozilla/5.0 (Windows NT 10.0; Win64; x64) AppleWebKit/537.36 (KHTML, like Gecko) Chrome/134.0.0.0 Safari/537.36" version="26.1.0">
  <diagram name="Page-1" id="ErYak5a3Wl9w2alJ09yI">
    <mxGraphModel dx="1467" dy="767" grid="1" gridSize="10" guides="1" tooltips="1" connect="1" arrows="1" fold="1" page="1" pageScale="1" pageWidth="850" pageHeight="1100" math="0" shadow="0">
      <root>
        <mxCell id="0" />
        <mxCell id="1" parent="0" />
        <mxCell id="PjzH2P3P9xivkCfjDio8-1" value="FIM" style="strokeWidth=2;html=1;shape=mxgraph.flowchart.start_1;whiteSpace=wrap;" vertex="1" parent="1">
          <mxGeometry x="375" y="610" width="100" height="60" as="geometry" />
        </mxCell>
        <mxCell id="PjzH2P3P9xivkCfjDio8-13" style="edgeStyle=orthogonalEdgeStyle;rounded=0;orthogonalLoop=1;jettySize=auto;html=1;exitX=0.5;exitY=1;exitDx=0;exitDy=0;exitPerimeter=0;entryX=0.5;entryY=0;entryDx=0;entryDy=0;" edge="1" parent="1" source="PjzH2P3P9xivkCfjDio8-2" target="PjzH2P3P9xivkCfjDio8-4">
          <mxGeometry relative="1" as="geometry" />
        </mxCell>
        <mxCell id="PjzH2P3P9xivkCfjDio8-2" value="INICIO" style="strokeWidth=2;html=1;shape=mxgraph.flowchart.start_1;whiteSpace=wrap;" vertex="1" parent="1">
          <mxGeometry x="375" y="100" width="100" height="60" as="geometry" />
        </mxCell>
        <mxCell id="PjzH2P3P9xivkCfjDio8-14" style="edgeStyle=orthogonalEdgeStyle;rounded=0;orthogonalLoop=1;jettySize=auto;html=1;exitX=0.5;exitY=1;exitDx=0;exitDy=0;entryX=0.5;entryY=0;entryDx=0;entryDy=0;" edge="1" parent="1" source="PjzH2P3P9xivkCfjDio8-4" target="PjzH2P3P9xivkCfjDio8-6">
          <mxGeometry relative="1" as="geometry" />
        </mxCell>
        <mxCell id="PjzH2P3P9xivkCfjDio8-4" value="MEDIA1" style="shape=parallelogram;html=1;strokeWidth=2;perimeter=parallelogramPerimeter;whiteSpace=wrap;rounded=1;arcSize=12;size=0.23;" vertex="1" parent="1">
          <mxGeometry x="330" y="200" width="190" height="40" as="geometry" />
        </mxCell>
        <mxCell id="PjzH2P3P9xivkCfjDio8-6" value="MEDIA2" style="shape=parallelogram;html=1;strokeWidth=2;perimeter=parallelogramPerimeter;whiteSpace=wrap;rounded=1;arcSize=12;size=0.23;" vertex="1" parent="1">
          <mxGeometry x="330" y="280" width="190" height="40" as="geometry" />
        </mxCell>
        <mxCell id="PjzH2P3P9xivkCfjDio8-8" value="MEDIA1 &amp;gt;= MEDIA2" style="strokeWidth=2;html=1;shape=mxgraph.flowchart.decision;whiteSpace=wrap;" vertex="1" parent="1">
          <mxGeometry x="382" y="340" width="98" height="90" as="geometry" />
        </mxCell>
        <mxCell id="PjzH2P3P9xivkCfjDio8-9" value="RECUPERAÇÃO" style="strokeWidth=2;html=1;shape=mxgraph.flowchart.display;whiteSpace=wrap;" vertex="1" parent="1">
          <mxGeometry x="220" y="450" width="100" height="60" as="geometry" />
        </mxCell>
        <mxCell id="PjzH2P3P9xivkCfjDio8-10" value="APROVADO" style="strokeWidth=2;html=1;shape=mxgraph.flowchart.display;whiteSpace=wrap;" vertex="1" parent="1">
          <mxGeometry x="520" y="450" width="100" height="60" as="geometry" />
        </mxCell>
        <mxCell id="PjzH2P3P9xivkCfjDio8-11" style="edgeStyle=orthogonalEdgeStyle;rounded=0;orthogonalLoop=1;jettySize=auto;html=1;exitX=0;exitY=0.5;exitDx=0;exitDy=0;exitPerimeter=0;entryX=0.5;entryY=0;entryDx=0;entryDy=0;entryPerimeter=0;" edge="1" parent="1" source="PjzH2P3P9xivkCfjDio8-8" target="PjzH2P3P9xivkCfjDio8-9">
          <mxGeometry relative="1" as="geometry" />
        </mxCell>
        <mxCell id="PjzH2P3P9xivkCfjDio8-12" style="edgeStyle=orthogonalEdgeStyle;rounded=0;orthogonalLoop=1;jettySize=auto;html=1;exitX=1;exitY=0.5;exitDx=0;exitDy=0;exitPerimeter=0;entryX=0.68;entryY=0.05;entryDx=0;entryDy=0;entryPerimeter=0;" edge="1" parent="1" source="PjzH2P3P9xivkCfjDio8-8" target="PjzH2P3P9xivkCfjDio8-10">
          <mxGeometry relative="1" as="geometry" />
        </mxCell>
        <mxCell id="PjzH2P3P9xivkCfjDio8-15" style="edgeStyle=orthogonalEdgeStyle;rounded=0;orthogonalLoop=1;jettySize=auto;html=1;exitX=0.5;exitY=1;exitDx=0;exitDy=0;entryX=0.5;entryY=0;entryDx=0;entryDy=0;entryPerimeter=0;" edge="1" parent="1" source="PjzH2P3P9xivkCfjDio8-6" target="PjzH2P3P9xivkCfjDio8-8">
          <mxGeometry relative="1" as="geometry" />
        </mxCell>
        <mxCell id="PjzH2P3P9xivkCfjDio8-16" value="" style="verticalLabelPosition=bottom;verticalAlign=top;html=1;shape=mxgraph.flowchart.on-page_reference;" vertex="1" parent="1">
          <mxGeometry x="411" y="540" width="40" height="40" as="geometry" />
        </mxCell>
        <mxCell id="PjzH2P3P9xivkCfjDio8-17" style="edgeStyle=orthogonalEdgeStyle;rounded=0;orthogonalLoop=1;jettySize=auto;html=1;exitX=0.5;exitY=1;exitDx=0;exitDy=0;exitPerimeter=0;entryX=1;entryY=0.5;entryDx=0;entryDy=0;entryPerimeter=0;" edge="1" parent="1" source="PjzH2P3P9xivkCfjDio8-10" target="PjzH2P3P9xivkCfjDio8-16">
          <mxGeometry relative="1" as="geometry">
            <Array as="points">
              <mxPoint x="590" y="510" />
              <mxPoint x="590" y="560" />
            </Array>
          </mxGeometry>
        </mxCell>
        <mxCell id="PjzH2P3P9xivkCfjDio8-21" style="edgeStyle=orthogonalEdgeStyle;rounded=0;orthogonalLoop=1;jettySize=auto;html=1;exitX=0.5;exitY=1;exitDx=0;exitDy=0;exitPerimeter=0;entryX=0;entryY=0.5;entryDx=0;entryDy=0;entryPerimeter=0;" edge="1" parent="1" source="PjzH2P3P9xivkCfjDio8-9" target="PjzH2P3P9xivkCfjDio8-16">
          <mxGeometry relative="1" as="geometry" />
        </mxCell>
        <mxCell id="PjzH2P3P9xivkCfjDio8-22" style="edgeStyle=orthogonalEdgeStyle;rounded=0;orthogonalLoop=1;jettySize=auto;html=1;exitX=0.5;exitY=1;exitDx=0;exitDy=0;exitPerimeter=0;entryX=0.5;entryY=0;entryDx=0;entryDy=0;entryPerimeter=0;" edge="1" parent="1" source="PjzH2P3P9xivkCfjDio8-16" target="PjzH2P3P9xivkCfjDio8-1">
          <mxGeometry relative="1" as="geometry" />
        </mxCell>
      </root>
    </mxGraphModel>
  </diagram>
</mxfile>
